<?xml version="1.0" standalone="no"?>
<!DOCTYPE svg PUBLIC "-//W3C//DTD SVG 20010904//EN"
 "http://www.w3.org/TR/2001/REC-SVG-20010904/DTD/svg10.dtd">
<svg version="1.0" xmlns="http://www.w3.org/2000/svg"
 width="150.000000pt" height="150.000000pt" viewBox="0 0 150.000000 150.000000"
 preserveAspectRatio="xMidYMid meet">
<metadata>
Created by potrace 1.11, written by Peter Selinger 2001-2013
</metadata>
<g transform="translate(0.000000,150.000000) scale(0.100000,-0.100000)"
fill="#000000" stroke="none">
<path d="M735 1476 c-20 -23 -37 -70 -26 -74 15 -5 14 -61 -1 -76 -7 -7 -41
-18 -76 -26 -69 -14 -170 -58 -218 -95 -17 -13 -39 -22 -50 -20 -10 2 -25 4
-31 4 -7 1 -13 8 -13 15 0 21 -67 69 -85 62 -24 -9 -18 -25 30 -74 52 -52 55
-72 19 -119 -36 -48 -71 -127 -89 -207 -19 -82 -35 -98 -87 -90 -36 6 -108
-11 -108 -24 0 -18 42 -30 91 -27 68 5 83 -7 97 -71 17 -79 50 -159 88 -214
37 -54 40 -95 7 -114 -29 -16 -64 -59 -61 -75 6 -32 45 -24 78 17 40 50 74 58
114 27 49 -37 149 -81 218 -95 78 -17 90 -30 82 -96 -5 -40 -2 -54 11 -68 16
-15 20 -16 33 -3 14 15 19 87 7 106 -8 15 34 49 69 56 72 15 159 49 214 84 43
28 66 37 86 34 14 -3 26 -8 26 -12 0 -4 14 -22 31 -39 37 -38 69 -43 69 -9 -1
22 -52 87 -69 87 -24 0 -14 49 21 104 42 66 75 146 84 209 10 62 29 80 80 72
55 -8 94 2 94 25 0 30 -38 39 -103 25 -37 -8 -63 19 -72 75 -11 67 -41 140
-85 208 -45 71 -44 87 11 132 43 34 55 80 20 80 -17 0 -81 -55 -81 -71 0 -4
-12 -9 -27 -12 -19 -4 -39 3 -68 23 -72 49 -157 84 -233 96 -55 9 -63 20 -60
83 3 60 -18 109 -37 87z"/>
</g>
</svg>
